<?xml version="1.0" encoding="UTF-8" standalone="no"?>
<svg
   xmlns:ns1="http://www.iki.fi/pav/software/textext/"
   xmlns:dc="http://purl.org/dc/elements/1.1/"
   xmlns:cc="http://creativecommons.org/ns#"
   xmlns:rdf="http://www.w3.org/1999/02/22-rdf-syntax-ns#"
   xmlns:svg="http://www.w3.org/2000/svg"
   xmlns="http://www.w3.org/2000/svg"
   id="svg8"
   version="1.1"
   viewBox="0 0 210 297"
   height="297mm"
   width="210mm">
  <defs
     id="defs2" />
  <metadata
     id="metadata5">
    <rdf:RDF>
      <cc:Work
         rdf:about="">
        <dc:format>image/svg+xml</dc:format>
        <dc:type
           rdf:resource="http://purl.org/dc/dcmitype/StillImage" />
        <dc:title></dc:title>
      </cc:Work>
    </rdf:RDF>
  </metadata>
  <g
     id="layer1">
    <g
       transform="matrix(0.352778,0.000000,0.000000,0.352778,-2.761508,92.763546)"
       ns1:version="0.11.1"
       ns1:texconverter="pdflatex"
       ns1:pdfconverter="pdf2svg"
       ns1:text="\\[\\int_1^3\\epsilon_i\\]\n\n"
       ns1:preamble=""
       ns1:scale="1.0"
       ns1:alignment="middle center"
       ns1:jacobian_sqrt="0.352778"
       id="g855">
      <g
         id="surface1">
        <g
           style="fill:rgb(0%,0%,0%);fill-opacity:1;"
           id="g836">
          <path
             style="stroke:none;stroke-width:0"
             d="M 1.03125 21.703125 C 1.359375 21.6875 1.53125 21.46875 1.53125 21.21875 C 1.53125 20.890625 1.28125 20.71875 1.046875 20.71875 C 0.8125 20.71875 0.5625 20.875 0.5625 21.21875 C 0.5625 21.734375 1.0625 22.15625 1.671875 22.15625 C 3.1875 22.15625 3.75 19.8125 4.453125 16.921875 C 5.21875 13.78125 5.875 10.59375 6.40625 7.390625 C 6.78125 5.28125 7.140625 3.28125 7.484375 2 C 7.609375 1.5 7.9375 0.21875 8.328125 0.21875 C 8.640625 0.21875 8.890625 0.40625 8.9375 0.453125 C 8.609375 0.46875 8.4375 0.6875 8.4375 0.9375 C 8.4375 1.265625 8.6875 1.421875 8.90625 1.421875 C 9.15625 1.421875 9.40625 1.28125 9.40625 0.921875 C 9.40625 0.390625 8.859375 0 8.3125 0 C 7.5625 0 7 1.09375 6.453125 3.125 C 6.421875 3.234375 5.0625 8.234375 3.96875 14.75 C 3.703125 16.28125 3.421875 17.9375 3.09375 19.328125 C 2.90625 20.0625 2.453125 21.9375 1.640625 21.9375 C 1.28125 21.9375 1.046875 21.703125 1.03125 21.703125 Z M 1.03125 21.703125 "
             transform="translate(293.897,147.755)"
             id="path834" />
        </g>
        <g
           style="fill:rgb(0%,0%,0%);fill-opacity:1;"
           id="g840">
          <path
             style="stroke:none;stroke-width:0"
             d="M 1.90625 -2.328125 C 2.453125 -2.328125 2.84375 -1.953125 2.84375 -1.203125 C 2.84375 -0.34375 2.328125 -0.078125 1.9375 -0.078125 C 1.65625 -0.078125 1.03125 -0.15625 0.75 -0.578125 C 1.078125 -0.578125 1.15625 -0.8125 1.15625 -0.96875 C 1.15625 -1.1875 0.984375 -1.34375 0.765625 -1.34375 C 0.578125 -1.34375 0.375 -1.21875 0.375 -0.9375 C 0.375 -0.28125 1.09375 0.140625 1.9375 0.140625 C 2.90625 0.140625 3.578125 -0.515625 3.578125 -1.203125 C 3.578125 -1.75 3.140625 -2.296875 2.375 -2.453125 C 3.09375 -2.71875 3.359375 -3.234375 3.359375 -3.671875 C 3.359375 -4.21875 2.734375 -4.625 1.953125 -4.625 C 1.1875 -4.625 0.59375 -4.25 0.59375 -3.6875 C 0.59375 -3.453125 0.75 -3.328125 0.953125 -3.328125 C 1.171875 -3.328125 1.3125 -3.484375 1.3125 -3.671875 C 1.3125 -3.875 1.171875 -4.03125 0.953125 -4.046875 C 1.203125 -4.34375 1.671875 -4.421875 1.9375 -4.421875 C 2.25 -4.421875 2.6875 -4.265625 2.6875 -3.671875 C 2.6875 -3.375 2.59375 -3.046875 2.40625 -2.84375 C 2.1875 -2.578125 1.984375 -2.5625 1.640625 -2.53125 C 1.46875 -2.515625 1.453125 -2.515625 1.421875 -2.515625 C 1.40625 -2.515625 1.34375 -2.5 1.34375 -2.421875 C 1.34375 -2.328125 1.40625 -2.328125 1.53125 -2.328125 Z M 1.90625 -2.328125 "
             transform="translate(303.86,150.218)"
             id="path838" />
        </g>
        <g
           style="fill:rgb(0%,0%,0%);fill-opacity:1;"
           id="g844">
          <path
             style="stroke:none;stroke-width:0"
             d="M 2.328125 -4.4375 C 2.328125 -4.625 2.328125 -4.625 2.125 -4.625 C 1.671875 -4.1875 1.046875 -4.1875 0.765625 -4.1875 L 0.765625 -3.9375 C 0.921875 -3.9375 1.390625 -3.9375 1.765625 -4.125 L 1.765625 -0.578125 C 1.765625 -0.34375 1.765625 -0.25 1.078125 -0.25 L 0.8125 -0.25 L 0.8125 0 C 0.9375 0 1.796875 -0.03125 2.046875 -0.03125 C 2.265625 -0.03125 3.140625 0 3.296875 0 L 3.296875 -0.25 L 3.03125 -0.25 C 2.328125 -0.25 2.328125 -0.34375 2.328125 -0.578125 Z M 2.328125 -4.4375 "
             transform="translate(299.432,170.393)"
             id="path842" />
        </g>
        <g
           style="fill:rgb(0%,0%,0%);fill-opacity:1;"
           id="g848">
          <path
             style="stroke:none;stroke-width:0"
             d="M 2.96875 -2.25 C 3.125 -2.25 3.3125 -2.25 3.3125 -2.421875 C 3.3125 -2.5625 3.1875 -2.5625 3.015625 -2.5625 L 1.40625 -2.5625 C 1.640625 -3.40625 2.203125 -3.984375 3.109375 -3.984375 L 3.421875 -3.984375 C 3.59375 -3.984375 3.75 -3.984375 3.75 -4.15625 C 3.75 -4.296875 3.625 -4.296875 3.453125 -4.296875 L 3.09375 -4.296875 C 1.796875 -4.296875 0.46875 -3.296875 0.46875 -1.78125 C 0.46875 -0.671875 1.21875 0.109375 2.265625 0.109375 C 2.921875 0.109375 3.5625 -0.296875 3.5625 -0.40625 C 3.5625 -0.421875 3.5625 -0.53125 3.46875 -0.53125 C 3.453125 -0.53125 3.421875 -0.53125 3.34375 -0.484375 C 3.03125 -0.28125 2.65625 -0.109375 2.296875 -0.109375 C 1.71875 -0.109375 1.21875 -0.53125 1.21875 -1.40625 C 1.21875 -1.75 1.296875 -2.140625 1.328125 -2.25 Z M 2.96875 -2.25 "
             transform="translate(309.99,161.315)"
             id="path846" />
        </g>
        <g
           style="fill:rgb(0%,0%,0%);fill-opacity:1;"
           id="g852">
          <path
             style="stroke:none;stroke-width:0"
             d="M 2.265625 -4.359375 C 2.265625 -4.46875 2.171875 -4.625 1.984375 -4.625 C 1.796875 -4.625 1.59375 -4.4375 1.59375 -4.234375 C 1.59375 -4.125 1.671875 -3.96875 1.875 -3.96875 C 2.0625 -3.96875 2.265625 -4.171875 2.265625 -4.359375 Z M 0.84375 -0.8125 C 0.8125 -0.71875 0.78125 -0.640625 0.78125 -0.515625 C 0.78125 -0.1875 1.046875 0.0625 1.4375 0.0625 C 2.125 0.0625 2.4375 -0.890625 2.4375 -1 C 2.4375 -1.09375 2.34375 -1.09375 2.328125 -1.09375 C 2.234375 -1.09375 2.21875 -1.046875 2.1875 -0.96875 C 2.03125 -0.40625 1.734375 -0.125 1.453125 -0.125 C 1.3125 -0.125 1.28125 -0.21875 1.28125 -0.375 C 1.28125 -0.53125 1.328125 -0.65625 1.390625 -0.8125 C 1.46875 -1 1.546875 -1.1875 1.609375 -1.375 C 1.671875 -1.546875 1.9375 -2.171875 1.953125 -2.265625 C 1.984375 -2.328125 2 -2.40625 2 -2.484375 C 2 -2.8125 1.71875 -3.078125 1.34375 -3.078125 C 0.640625 -3.078125 0.328125 -2.125 0.328125 -2 C 0.328125 -1.921875 0.421875 -1.921875 0.453125 -1.921875 C 0.546875 -1.921875 0.546875 -1.953125 0.578125 -2.03125 C 0.75 -2.625 1.0625 -2.875 1.3125 -2.875 C 1.421875 -2.875 1.484375 -2.828125 1.484375 -2.640625 C 1.484375 -2.46875 1.453125 -2.375 1.28125 -1.9375 Z M 0.84375 -0.8125 "
             transform="translate(314.034,162.81)"
             id="path850" />
        </g>
      </g>
    </g>
  </g>
</svg>
