<?xml version="1.0" encoding="UTF-8" standalone="no"?>
<!-- Created with Inkscape (http://www.inkscape.org/) -->

<svg
   xmlns:ns1="http://www.iki.fi/pav/software/textext/"
   xmlns:dc="http://purl.org/dc/elements/1.1/"
   xmlns:cc="http://creativecommons.org/ns#"
   xmlns:rdf="http://www.w3.org/1999/02/22-rdf-syntax-ns#"
   xmlns:svg="http://www.w3.org/2000/svg"
   xmlns="http://www.w3.org/2000/svg"
   xmlns:sodipodi="http://sodipodi.sourceforge.net/DTD/sodipodi-0.dtd"
   xmlns:inkscape="http://www.inkscape.org/namespaces/inkscape"
   version="1.1"
   id="svg2"
   xml:space="preserve"
   width="413.2171"
   height="171.56798"
   viewBox="0 0 413.2171 171.56797"
   sodipodi:docname="tangente.svg"
   inkscape:version="0.92.5 (2060ec1f9f, 2020-04-08)"><metadata
     id="metadata8"><rdf:RDF><cc:Work
         rdf:about=""><dc:format>image/svg+xml</dc:format><dc:type
           rdf:resource="http://purl.org/dc/dcmitype/StillImage" /><dc:title></dc:title></cc:Work></rdf:RDF></metadata><defs
     id="defs6"><marker
       inkscape:isstock="true"
       style="overflow:visible;"
       id="marker1391"
       refX="0.0"
       refY="0.0"
       orient="auto"
       inkscape:stockid="Arrow1Mend"><path
         transform="scale(0.4) rotate(180) translate(10,0)"
         style="fill-rule:evenodd;stroke:#000000;stroke-width:1pt;stroke-opacity:1;fill:#000000;fill-opacity:1"
         d="M 0.0,0.0 L 5.0,-5.0 L -12.5,0.0 L 5.0,5.0 L 0.0,0.0 z "
         id="path1389" /></marker><marker
       inkscape:isstock="true"
       style="overflow:visible"
       id="marker1345"
       refX="0.0"
       refY="0.0"
       orient="auto"
       inkscape:stockid="Arrow1Mstart"><path
         transform="scale(0.4) translate(10,0)"
         style="fill-rule:evenodd;stroke:#000000;stroke-width:1pt;stroke-opacity:1;fill:#000000;fill-opacity:1"
         d="M 0.0,0.0 L 5.0,-5.0 L -12.5,0.0 L 5.0,5.0 L 0.0,0.0 z "
         id="path1343" /></marker><marker
       inkscape:stockid="Arrow1Mstart"
       orient="auto"
       refY="0.0"
       refX="0.0"
       id="Arrow1Mstart"
       style="overflow:visible"
       inkscape:isstock="true"
       inkscape:collect="always"><path
         id="path1029"
         d="M 0.0,0.0 L 5.0,-5.0 L -12.5,0.0 L 5.0,5.0 L 0.0,0.0 z "
         style="fill-rule:evenodd;stroke:#000000;stroke-width:1pt;stroke-opacity:1;fill:#000000;fill-opacity:1"
         transform="scale(0.4) translate(10,0)" /></marker><marker
       inkscape:stockid="Arrow1Mend"
       orient="auto"
       refY="0.0"
       refX="0.0"
       id="Arrow1Mend"
       style="overflow:visible;"
       inkscape:isstock="true"
       inkscape:collect="always"><path
         id="path1032"
         d="M 0.0,0.0 L 5.0,-5.0 L -12.5,0.0 L 5.0,5.0 L 0.0,0.0 z "
         style="fill-rule:evenodd;stroke:#000000;stroke-width:1pt;stroke-opacity:1;fill:#000000;fill-opacity:1"
         transform="scale(0.4) rotate(180) translate(10,0)" /></marker></defs><sodipodi:namedview
     pagecolor="#ffffff"
     bordercolor="#666666"
     borderopacity="1"
     objecttolerance="10"
     gridtolerance="10"
     guidetolerance="10"
     inkscape:pageopacity="0"
     inkscape:pageshadow="2"
     inkscape:window-width="1366"
     inkscape:window-height="712"
     id="namedview4"
     showgrid="false"
     inkscape:zoom="0.91570404"
     inkscape:cx="234.75908"
     inkscape:cy="76.075702"
     inkscape:window-x="0"
     inkscape:window-y="0"
     inkscape:window-maximized="1"
     inkscape:current-layer="g10" /><g
     id="g10"
     inkscape:groupmode="layer"
     inkscape:label="tangente"
     transform="matrix(1.3333333,0,0,1.3333333,-38.349332,0.02130865)"><g
       id="g14"><path
         inkscape:connector-curvature="0"
         id="path16"
         style="fill:none;stroke:#000000;stroke-width:0.75;stroke-linecap:butt;stroke-linejoin:miter;stroke-miterlimit:4;stroke-dasharray:none;stroke-opacity:1"
         d="m 34.465,96.52 173.574,-60 C 170,116.879 332.23918,105.69331 332.23918,105.69331"
         sodipodi:nodetypes="ccc" /></g><path
       inkscape:connector-curvature="0"
       id="path18"
       style="fill:#000000;fill-opacity:1;fill-rule:nonzero;stroke:none"
       d="m 217.992,38.738 c 0,-0.031 -0.015,-0.109 -0.109,-0.109 -0.031,0 -0.047,0.016 -0.156,0.125 l -0.688,0.766 c -0.094,-0.141 -0.547,-0.891 -1.656,-0.891 -2.235,0 -4.469,2.203 -4.469,4.516 0,1.593 1.109,2.734 2.719,2.734 0.437,0 0.89,-0.094 1.25,-0.234 0.5,-0.204 0.687,-0.407 0.859,-0.61 0.09,0.25 0.36,0.61 0.453,0.61 0.047,0 0.078,-0.032 0.078,-0.032 0.012,-0.015 0.11,-0.406 0.157,-0.609 l 0.187,-0.766 c 0.047,-0.172 0.09,-0.343 0.141,-0.515 0.109,-0.438 0.109,-0.469 0.687,-0.469 0.047,0 0.157,-0.016 0.157,-0.203 0,-0.078 -0.051,-0.11 -0.125,-0.11 -0.235,0 -0.829,0.032 -1.047,0.032 -0.313,0 -1.094,-0.032 -1.407,-0.032 -0.078,0 -0.203,0 -0.203,0.204 0,0.109 0.075,0.109 0.297,0.109 0.012,0 0.297,0 0.531,0.016 0.266,0.031 0.313,0.062 0.313,0.187 0,0.094 -0.109,0.531 -0.219,0.906 -0.281,1.094 -1.562,1.203 -1.922,1.203 -0.953,0 -2,-0.562 -2,-2.093 0,-0.313 0.09,-1.953 1.141,-3.25 0.547,-0.672 1.516,-1.282 2.5,-1.282 1.016,0 1.609,0.766 1.609,1.922 0,0.407 -0.031,0.407 -0.031,0.516 0,0.094 0.109,0.094 0.141,0.094 0.125,0 0.125,-0.016 0.187,-0.203 z" /><path
       inkscape:connector-curvature="0"
       id="path20"
       style="fill:#000000;fill-opacity:1;fill-rule:nonzero;stroke:none"
       d="m 337.36284,93.89485 c 0.25,-0.438 0.484,-0.797 1.125,-0.844 0.078,-0.016 0.187,-0.016 0.187,-0.203 0,-0.031 -0.047,-0.109 -0.125,-0.109 -0.234,0 -0.515,0.031 -0.765,0.031 -0.344,0 -0.703,-0.031 -1.047,-0.031 -0.047,0 -0.188,0 -0.188,0.187 0,0.109 0.094,0.125 0.157,0.125 0.234,0.016 0.593,0.094 0.593,0.391 0,0.109 -0.062,0.187 -0.14,0.328 l -2.688,4.687 -0.375,-4.937 c 0,-0.203 -0.015,-0.453 0.703,-0.469 0.172,0 0.266,0 0.266,-0.203 0,-0.094 -0.109,-0.109 -0.141,-0.109 -0.406,0 -0.828,0.031 -1.218,0.031 -0.235,0 -0.813,-0.031 -1.047,-0.031 -0.063,0 -0.188,0 -0.188,0.203 0,0.109 0.094,0.109 0.235,0.109 0.437,0 0.515,0.063 0.531,0.25 l 0.062,0.766 -2.531,4.39 -0.375,-5.047 c 0,-0.125 0,-0.343 0.766,-0.359 0.093,0 0.203,0 0.203,-0.203 0,-0.109 -0.125,-0.109 -0.141,-0.109 -0.39,0 -0.812,0.031 -1.219,0.031 -0.359,0 -0.718,-0.031 -1.046,-0.031 -0.063,0 -0.188,0 -0.188,0.187 0,0.125 0.094,0.125 0.25,0.125 0.5,0 0.516,0.094 0.531,0.375 l 0.453,6.078 c 0,0.188 0.016,0.266 0.157,0.266 0.109,0 0.14,-0.063 0.234,-0.203 l 2.938,-5.094 0.359,5.031 c 0.031,0.219 0.047,0.266 0.156,0.266 0.141,0 0.203,-0.094 0.25,-0.188 z" /><path
       inkscape:connector-curvature="0"
       id="path22"
       style="fill:#000000;fill-opacity:1;fill-rule:nonzero;stroke:none"
       d="m 32.777,85.223 c 0.078,-0.282 0.11,-0.344 0.235,-0.375 0.093,-0.016 0.422,-0.016 0.625,-0.016 1.015,0 1.453,0.031 1.453,0.813 0,0.156 -0.031,0.546 -0.078,0.796 0,0.047 -0.032,0.157 -0.032,0.188 0,0.062 0.032,0.141 0.125,0.141 0.11,0 0.125,-0.079 0.157,-0.235 l 0.265,-1.734 c 0.016,-0.047 0.016,-0.141 0.016,-0.172 0,-0.109 -0.094,-0.109 -0.266,-0.109 h -5.531 c -0.234,0 -0.25,0.015 -0.328,0.203 l -0.594,1.75 c 0,0.015 -0.062,0.156 -0.062,0.187 0,0.047 0.062,0.11 0.125,0.11 0.093,0 0.109,-0.063 0.172,-0.219 0.531,-1.547 0.796,-1.719 2.265,-1.719 h 0.391 c 0.281,0 0.281,0.031 0.281,0.125 0,0.047 -0.031,0.172 -0.047,0.203 l -1.328,5.328 c -0.094,0.36 -0.125,0.469 -1.187,0.469 -0.36,0 -0.422,0 -0.422,0.188 0,0.125 0.109,0.125 0.172,0.125 0.265,0 0.546,-0.016 0.812,-0.016 0.281,0 0.578,-0.016 0.859,-0.016 0.282,0 0.547,0.016 0.829,0.016 0.281,0 0.578,0.016 0.859,0.016 0.094,0 0.219,0 0.219,-0.204 0,-0.109 -0.078,-0.109 -0.344,-0.109 -0.234,0 -0.375,0 -0.625,-0.016 -0.297,-0.031 -0.375,-0.062 -0.375,-0.218 0,-0.016 0,-0.063 0.047,-0.203 z" /><g
       id="g24"><path
         inkscape:connector-curvature="0"
         id="path26"
         style="fill:none;stroke:#000000;stroke-width:0.75118101;stroke-linecap:butt;stroke-linejoin:miter;stroke-miterlimit:4;stroke-dasharray:1.502362, 1.502362;stroke-dashoffset:0;stroke-opacity:1"
         d="M 224.504,2.695 163.082,128.66" /></g><g
       id="g28"
       transform="matrix(0.88980796,0,0,0.88953145,34.422565,0.02308426)"
       style="stroke-width:1.12401271"><path
         inkscape:connector-curvature="0"
         id="path30"
         style="fill:none;stroke:#000000;stroke-width:0.84433699;stroke-linecap:butt;stroke-linejoin:miter;stroke-miterlimit:4;stroke-dasharray:1.6886739, 1.6886739;stroke-dashoffset:0;stroke-opacity:1"
         d="M 312.473,0.355 0.121,108.543" /></g><g
       id="g44"><path
         inkscape:connector-curvature="0"
         id="path46"
         style="fill:none;stroke:#000000;stroke-width:0.75118101;stroke-linecap:round;stroke-linejoin:miter;stroke-miterlimit:4;stroke-dasharray:none;stroke-opacity:1"
         d="m 185.453,86.793 c 3.195,2.203 5.086,5.852 5.039,9.734" /></g><g
       transform="matrix(1,0.689207,-0.689207,1,0,0)"
       id="g48"><path
         inkscape:connector-curvature="0"
         id="path50"
         style="fill:#000000;fill-opacity:1;fill-rule:evenodd;stroke:#000000;stroke-width:0.16493601;stroke-linecap:butt;stroke-linejoin:miter;stroke-miterlimit:4;stroke-dasharray:none;stroke-opacity:1"
         d="m 167.027,-27.812 0.618,-0.617 -2.165,0.617 2.164,0.618 z" /></g><path
       inkscape:connector-curvature="0"
       id="path52"
       style="fill:#000000;fill-opacity:1;fill-rule:nonzero;stroke:none"
       d="m 302.535,9.207 c 0,-1.562 -0.922,-2.047 -1.656,-2.047 -1.375,0 -2.688,1.422 -2.688,2.828 0,0.938 0.594,1.688 1.625,1.688 0.625,0 1.344,-0.235 2.094,-0.844 0.125,0.531 0.453,0.844 0.906,0.844 0.532,0 0.844,-0.547 0.844,-0.703 0,-0.078 -0.062,-0.11 -0.125,-0.11 -0.062,0 -0.094,0.032 -0.125,0.11 -0.187,0.484 -0.547,0.484 -0.562,0.484 -0.313,0 -0.313,-0.781 -0.313,-1.016 0,-0.203 0,-0.234 0.11,-0.343 0.937,-1.188 1.14,-2.344 1.14,-2.344 0,-0.031 -0.015,-0.109 -0.125,-0.109 -0.094,0 -0.094,0.031 -0.14,0.218 -0.188,0.625 -0.516,1.375 -0.985,1.969 z m -0.656,1.375 c -0.891,0.766 -1.656,0.875 -2.047,0.875 -0.594,0 -0.906,-0.453 -0.906,-1.094 0,-0.484 0.265,-1.562 0.578,-2.062 0.469,-0.735 1.016,-0.922 1.359,-0.922 0.985,0 0.985,1.312 0.985,2.078 0,0.375 0,0.953 0.031,1.125 z" /><g
       id="g66"><path
         inkscape:connector-curvature="0"
         id="path68"
         style="fill:none;stroke:#000000;stroke-width:0.75118101;stroke-linecap:round;stroke-linejoin:miter;stroke-miterlimit:4;stroke-dasharray:none;stroke-opacity:1"
         d="m 289.539,9.152 c 0.941,1.743 1.422,3.7 1.399,5.68" /></g><g
       transform="matrix(0.540028,1,-1,0.540028,0,0)"
       id="g70"><path
         inkscape:connector-curvature="0"
         id="path72"
         style="fill:#000000;fill-opacity:1;fill-rule:evenodd;stroke:#000000;stroke-width:0.176256;stroke-linecap:butt;stroke-linejoin:miter;stroke-miterlimit:4;stroke-dasharray:none;stroke-opacity:1"
         d="m 128.935,-220.34 0.661,-0.659 -2.314,0.661 2.315,0.66 z" /></g><path
       inkscape:connector-curvature="0"
       id="path74"
       style="fill:#000000;fill-opacity:1;fill-rule:nonzero;stroke:none"
       d="m 198.93,84.527 c 0,-0.75 -0.547,-1.359 -1.36,-1.359 -0.578,0 -0.859,0.156 -1.203,0.406 -0.547,0.406 -1.094,1.375 -1.281,2.125 l -1.594,6.328 c 0,0.047 0.047,0.11 0.125,0.11 0.078,0 0.11,-0.032 0.11,-0.047 l 0.703,-2.766 c 0.187,0.61 0.625,0.969 1.359,0.969 0.719,0 1.469,-0.344 1.922,-0.781 0.484,-0.453 0.797,-1.094 0.797,-1.828 0,-0.719 -0.375,-1.25 -0.735,-1.485 0.579,-0.344 1.157,-0.953 1.157,-1.672 z m -1.797,1.657 c -0.125,0.046 -0.235,0.062 -0.485,0.062 -0.14,0 -0.328,0.016 -0.437,-0.031 0.031,-0.11 0.391,-0.078 0.5,-0.078 0.203,0 0.297,0 0.422,0.047 z m 1.234,-1.891 c 0,0.703 -0.375,1.422 -0.89,1.734 -0.282,-0.109 -0.469,-0.125 -0.766,-0.125 -0.219,0 -0.781,-0.015 -0.781,0.313 0,0.281 0.515,0.25 0.687,0.25 0.375,0 0.531,0 0.828,-0.125 0.375,0.359 0.422,0.672 0.438,1.125 0.015,0.578 -0.219,1.328 -0.5,1.719 -0.391,0.531 -1.063,0.89 -1.625,0.89 -0.766,0 -1.141,-0.578 -1.141,-1.281 0,-0.094 0,-0.25 0.047,-0.438 l 0.641,-2.515 c 0.218,-0.86 0.937,-2.453 2.14,-2.453 0.578,0 0.922,0.312 0.922,0.906 z" /><path
       inkscape:connector-curvature="0"
       id="path76"
       style="fill:#000000;fill-opacity:1;fill-rule:nonzero;stroke:none"
       d="m 231.54671,93.613142 c 0,0.621 -0.5,1.125 -1.125,1.125 -0.621,0 -1.125,-0.504 -1.125,-1.125 0,-0.621 0.504,-1.125 1.125,-1.125 0.625,0 1.125,0.504 1.125,1.125 z" /><path
       inkscape:connector-curvature="0"
       id="path78"
       style="fill:#000000;fill-opacity:1;fill-rule:nonzero;stroke:none"
       d="m 151.961,56.301 c 0,0.621 -0.504,1.125 -1.125,1.125 -0.621,0 -1.125,-0.504 -1.125,-1.125 0,-0.621 0.504,-1.125 1.125,-1.125 0.621,0 1.125,0.504 1.125,1.125 z" /><path
       inkscape:connector-curvature="0"
       id="path80"
       style="fill:#000000;fill-opacity:1;fill-rule:nonzero;stroke:none"
       d="m 153.707,44.176 c 0,-0.031 -0.016,-0.11 -0.109,-0.11 -0.032,0 -0.047,0.016 -0.157,0.125 l -0.687,0.766 c -0.094,-0.141 -0.547,-0.891 -1.656,-0.891 -2.235,0 -4.469,2.204 -4.469,4.516 0,1.594 1.109,2.734 2.719,2.734 0.437,0 0.89,-0.093 1.25,-0.234 0.5,-0.203 0.687,-0.406 0.859,-0.609 0.094,0.25 0.359,0.609 0.453,0.609 0.047,0 0.078,-0.031 0.078,-0.031 0.016,-0.016 0.11,-0.406 0.157,-0.61 l 0.187,-0.765 c 0.047,-0.172 0.094,-0.344 0.141,-0.516 0.109,-0.437 0.109,-0.469 0.687,-0.469 0.047,0 0.156,-0.015 0.156,-0.203 0,-0.078 -0.046,-0.109 -0.125,-0.109 -0.234,0 -0.828,0.031 -1.046,0.031 -0.313,0 -1.094,-0.031 -1.407,-0.031 -0.078,0 -0.203,0 -0.203,0.203 0,0.109 0.078,0.109 0.297,0.109 0.016,0 0.297,0 0.531,0.016 0.266,0.031 0.313,0.063 0.313,0.188 0,0.093 -0.11,0.531 -0.219,0.906 -0.281,1.094 -1.562,1.203 -1.922,1.203 -0.953,0 -2,-0.563 -2,-2.094 0,-0.312 0.094,-1.953 1.141,-3.25 0.547,-0.672 1.515,-1.281 2.5,-1.281 1.015,0 1.609,0.766 1.609,1.922 0,0.406 -0.031,0.406 -0.031,0.515 0,0.094 0.109,0.094 0.141,0.094 0.125,0 0.125,-0.015 0.187,-0.203 z" /><path
       inkscape:connector-curvature="0"
       id="path82"
       style="fill:#000000;fill-opacity:1;fill-rule:nonzero;stroke:none"
       d="m 155.977,44.184 c 0.062,-0.11 0.062,-0.172 0.062,-0.219 0,-0.219 -0.187,-0.375 -0.406,-0.375 -0.266,0 -0.344,0.219 -0.375,0.328 l -0.922,3.016 c -0.016,0.015 -0.047,0.093 -0.047,0.109 0,0.078 0.219,0.156 0.281,0.156 0.047,0 0.047,-0.015 0.094,-0.125 z" /><path
       inkscape:connector-curvature="0"
       id="path84"
       style="fill:#000000;fill-opacity:1;fill-rule:nonzero;stroke:none"
       d="m 238.27657,83.858341 c 0.25,-0.438 0.485,-0.797 1.125,-0.844 0.078,-0.016 0.188,-0.016 0.188,-0.203 0,-0.031 -0.047,-0.109 -0.125,-0.109 -0.235,0 -0.516,0.031 -0.766,0.031 -0.344,0 -0.703,-0.031 -1.047,-0.031 -0.047,0 -0.187,0 -0.187,0.187 0,0.109 0.093,0.125 0.156,0.125 0.234,0.016 0.594,0.094 0.594,0.391 0,0.109 -0.063,0.187 -0.141,0.328 l -2.687,4.687 -0.375,-4.937 c 0,-0.203 -0.016,-0.453 0.703,-0.469 0.172,0 0.265,0 0.265,-0.203 0,-0.094 -0.109,-0.109 -0.14,-0.109 -0.406,0 -0.828,0.031 -1.219,0.031 -0.234,0 -0.813,-0.031 -1.047,-0.031 -0.062,0 -0.187,0 -0.187,0.203 0,0.109 0.093,0.109 0.234,0.109 0.437,0 0.516,0.062 0.531,0.25 l 0.063,0.766 -2.531,4.39 -0.376,-5.047 c 0,-0.125 0,-0.343 0.766,-0.359 0.094,0 0.203,0 0.203,-0.203 0,-0.109 -0.125,-0.109 -0.14,-0.109 -0.391,0 -0.813,0.031 -1.219,0.031 -0.36,0 -0.719,-0.031 -1.047,-0.031 -0.063,0 -0.187,0 -0.187,0.187 0,0.125 0.093,0.125 0.25,0.125 0.5,0 0.515,0.094 0.531,0.375 l 0.453,6.078 c 0,0.188 0.016,0.266 0.156,0.266 0.11,0 0.141,-0.063 0.234,-0.203 l 2.938,-5.094 0.359,5.031 c 0.032,0.219 0.047,0.266 0.157,0.266 0.14,0 0.203,-0.094 0.25,-0.188 z" /><path
       inkscape:connector-curvature="0"
       id="path86"
       style="fill:#000000;fill-opacity:1;fill-rule:nonzero;stroke:none"
       d="m 241.94457,82.604341 c 0.063,-0.11 0.063,-0.172 0.063,-0.219 0,-0.219 -0.188,-0.375 -0.407,-0.375 -0.265,0 -0.343,0.219 -0.375,0.328 l -0.921,3.016 c -0.016,0.015 -0.047,0.094 -0.047,0.109 0,0.078 0.218,0.156 0.281,0.156 0.047,0 0.047,-0.015 0.094,-0.125 z" /><path
       style="fill:none;stroke:#000000;stroke-width:0.75000002;stroke-linecap:butt;stroke-linejoin:miter;stroke-opacity:1;stroke-miterlimit:4;stroke-dasharray:1.50000004, 1.50000003999999998;stroke-dashoffset:0;marker-end:url(#Arrow1Mend);marker-start:url(#Arrow1Mstart)"
       d="M 322.414,14.824 H 203.27"
       id="path1006"
       inkscape:connector-curvature="0" /><path
       style="fill:none;stroke:#000000;stroke-width:0.75;stroke-linecap:butt;stroke-linejoin:miter;stroke-miterlimit:4;stroke-dasharray:1.50000004, 1.50000004;stroke-dashoffset:0;stroke-opacity:1;marker-start:url(#marker1345);marker-end:url(#marker1391)"
       d="M 208.95862,96.737182 H 103.40244"
       id="path1006-3"
       inkscape:connector-curvature="0" /><path
       style="fill:none;stroke:#000000;stroke-width:0.75;stroke-linecap:butt;stroke-linejoin:miter;stroke-miterlimit:4;stroke-dasharray:1.50000004, 1.50000004;stroke-dashoffset:0;stroke-opacity:1"
       d="M 302.38875,123.76329 172.29191,69.292346"
       id="path1473"
       inkscape:connector-curvature="0"
       sodipodi:nodetypes="cc" /><g
       id="g1534"
       ns1:jacobian_sqrt="1.333333"
       inkscapeversion="0.92.5"
       ns1:alignment="middle center"
       ns1:scale="1.0000000567"
       ns1:preamble=""
       ns1:text="$\\mathcal{L}$\n"
       ns1:pdfconverter="pdf2svg"
       ns1:texconverter="pdflatex"
       ns1:version="0.11.1"
       transform="matrix(1.333333,0,0,1.333333,105.10873,-53.129628)"><g
   id="surface1">
<g
   id="g1531"
   style="fill:#000000;fill-opacity:1">
  <path
   id="path1529"
   transform="translate(148.712,134.765)"
   d="M 1.796875,-0.921875 C 2.328125,-1.765625 2.5,-2.40625 2.625,-2.9375 2.984375,-4.3125 3.359375,-5.5 3.984375,-6.1875 4.09375,-6.3125 4.171875,-6.40625 4.5,-6.40625 c 0.6875,0 0.703125,0.6875 0.703125,0.828125 0,0.171875 -0.046875,0.3125 -0.046875,0.359375 0,0.078125 0.0625,0.078125 0.0625,0.078125 0.171875,0 0.4375,-0.109375 0.6875,-0.296875 0.171875,-0.140625 0.265625,-0.234375 0.265625,-0.640625 0,-0.546875 -0.28125,-0.953125 -0.84375,-0.953125 -0.3125,0 -1.1875,0.078125 -2.171875,1.0625 -0.796875,0.828125 -1.265625,2.625 -1.453125,3.359375 -0.171875,0.703125 -0.25,1 -0.5625,1.609375 -0.0625,0.109375 -0.328125,0.546875 -0.46875,0.6875 C 0.40625,-0.0625 0.3125,0.109375 0.3125,0.15625 c 0,0.015625 0.015625,0.0625 0.09375,0.0625 0.03125,0 0.234375,-0.046875 0.5,-0.203125 0.171875,-0.109375 0.1875,-0.125 0.421875,-0.359375 0.5,0 0.84375,0.09375 1.46875,0.28125 0.515625,0.125 1.015625,0.28125 1.53125,0.28125 0.8125,0 1.625,-0.609375 1.9375,-1.046875 C 6.46875,-1.09375 6.53125,-1.34375 6.53125,-1.375 c 0,-0.078125 -0.0625,-0.078125 -0.078125,-0.078125 -0.15625,0 -0.390625,0.125 -0.5625,0.234375 C 5.625,-1.046875 5.609375,-0.984375 5.546875,-0.8125 5.5,-0.65625 5.4375,-0.578125 5.390625,-0.515625 5.3125,-0.40625 5.296875,-0.40625 5.15625,-0.40625 4.671875,-0.40625 4.171875,-0.546875 3.515625,-0.734375 3.234375,-0.8125 2.6875,-0.96875 2.1875,-0.96875 c -0.125,0 -0.265625,0.015625 -0.390625,0.046875 z m 0,0"
   style="stroke:none;stroke-width:0"
   inkscape:connector-curvature="0" />
</g>
</g>
</g></g></svg>